<svg xmlns="http://www.w3.org/2000/svg" viewBox="0 0 1500 1000" width="1500" height="1000">
  <defs>
    <pattern id="grid" width="20" height="20" patternUnits="userSpaceOnUse">
      <path d="M 20 0 L 0 0 0 20" fill="none" stroke="#e0e0e0" stroke-width="0.5"/>
    </pattern>
    <marker id="arrowBlue" markerWidth="8" markerHeight="8" refX="6" refY="3" orient="auto">
      <path d="M0,0 L0,6 L8,3 z" fill="#00c8ff"/>
    </marker>
    <filter id="shadow"><feDropShadow dx="2" dy="2" stdDeviation="3" flood-opacity="0.15"/></filter>
    <filter id="glow"><feGaussianBlur stdDeviation="4" result="coloredBlur"/><feMerge><feMergeNode in="coloredBlur"/><feMergeNode in="SourceGraphic"/></feMerge></filter>
    <filter id="redglow"><feGaussianBlur stdDeviation="5" result="coloredBlur"/><feMerge><feMergeNode in="coloredBlur"/><feMergeNode in="SourceGraphic"/></feMerge></filter>
    <filter id="orangeglow"><feGaussianBlur stdDeviation="5" result="coloredBlur"/><feMerge><feMergeNode in="coloredBlur"/><feMergeNode in="SourceGraphic"/></feMerge></filter>
  </defs>
  <rect width="1500" height="1000" fill="#f5f6fa"/>
  <rect width="1500" height="1000" fill="url(#grid)"/>
  <rect x="1000" y="20" width="480" height="960" fill="#e9efe0" rx="4"/>
  <text x="1240" y="55" font-family="sans-serif" font-size="18" fill="#5a7a3a" font-weight="bold" text-anchor="middle">OUTDOOR ZONE</text>
  <rect x="1000" y="160" width="480" height="100" fill="#c8cdd4"/>
  <line x1="1000" y1="210" x2="1480" y2="210" stroke="white" stroke-width="2" stroke-dasharray="25,12"/>
  <text x="1240" y="207" font-family="sans-serif" font-size="13" fill="#fff" text-anchor="middle" font-weight="bold">메인 도로</text>
  <rect x="1100" y="20" width="80" height="160" fill="#c8cdd4"/>
  <rect x="1100" y="260" width="80" height="720" fill="#c8cdd4"/>
  <rect x="1210" y="300" width="250" height="200" fill="#dde3eb" stroke="#aaa" stroke-width="1.5" rx="3"/>
  <text x="1335" y="330" font-family="sans-serif" font-size="13" fill="#666" text-anchor="middle" font-weight="bold">주차장</text>
  <line x1="1255" y1="345" x2="1255" y2="500" stroke="#bbb" stroke-width="1"/>
  <line x1="1295" y1="345" x2="1295" y2="500" stroke="#bbb" stroke-width="1"/>
  <line x1="1335" y1="345" x2="1335" y2="500" stroke="#bbb" stroke-width="1"/>
  <line x1="1375" y1="345" x2="1375" y2="500" stroke="#bbb" stroke-width="1"/>
  <rect x="1218" y="360" width="32" height="60" fill="#b0bec5" rx="3"/>
  <rect x="1258" y="360" width="32" height="60" fill="#b0bec5" rx="3"/>
  <rect x="1298" y="360" width="32" height="60" fill="#90a4ae" rx="3"/>
  <rect x="1338" y="360" width="32" height="60" fill="#b0bec5" rx="3"/>
  <circle cx="1050" cy="580" r="25" fill="#7cb87c" opacity="0.8"/>
  <circle cx="1050" cy="650" r="25" fill="#6aaa6a" opacity="0.8"/>
  <circle cx="1050" cy="720" r="25" fill="#7cb87c" opacity="0.8"/>
  <circle cx="1050" cy="790" r="25" fill="#6aaa6a" opacity="0.8"/>
  <circle cx="1050" cy="860" r="25" fill="#7cb87c" opacity="0.8"/>
  <rect x="1210" y="620" width="250" height="180" fill="#dde3eb" stroke="#888" stroke-width="2" rx="3"/>
  <text x="1335" y="720" font-family="sans-serif" font-size="13" fill="#555" text-anchor="middle" font-weight="bold">외부 창고</text>


  <line x1="1000" y1="20" x2="1000" y2="980" stroke="#555" stroke-width="4"/>
  <rect x="30" y="30" width="950" height="940" fill="#fafafa" rx="6" stroke="#333" stroke-width="5"/>
  <rect x="40" y="40" width="930" height="450" fill="#eaf4fd" rx="4" stroke="#2980b9" stroke-width="2.5"/>
  <text x="505" y="75" font-family="sans-serif" font-size="20" fill="#1a6fa8" font-weight="bold" text-anchor="middle">A 라인 — 생산 구역</text>
  <rect x="55" y="90" width="210" height="370" fill="#d4e8f7" rx="4" stroke="#2980b9" stroke-width="1.5"/>
  <text x="160" y="125" font-family="sans-serif" font-size="14" fill="#1a5f8a" text-anchor="middle" font-weight="bold">A-1 조립라인</text>
  <text x="160" y="145" font-family="sans-serif" font-size="11" fill="#5d8aa8" text-anchor="middle">[ 콘크리트 ]</text>
  <rect x="75" y="165" width="80" height="50" fill="#a9cce3" rx="3"/>
  <rect x="170" y="165" width="80" height="50" fill="#a9cce3" rx="3"/>
  <rect x="75" y="230" width="80" height="50" fill="#a9cce3" rx="3"/>
  <rect x="170" y="230" width="80" height="50" fill="#a9cce3" rx="3"/>
  <rect x="75" y="295" width="80" height="50" fill="#a9cce3" rx="3"/>
  <rect x="170" y="295" width="80" height="50" fill="#a9cce3" rx="3"/>
  <rect x="280" y="90" width="210" height="370" fill="#fdebd0" rx="4" stroke="#e67e22" stroke-width="2.5"/>
  <text x="385" y="125" font-family="sans-serif" font-size="14" fill="#c0392b" text-anchor="middle" font-weight="bold">A-2 검수구역</text>
  <text x="385" y="145" font-family="sans-serif" font-size="11" fill="#e67e22" text-anchor="middle">[ 타일 ] ⚠ 이상감지</text>

  <rect x="505" y="90" width="210" height="370" fill="#d5f5e3" rx="4" stroke="#27ae60" stroke-width="1.5"/>
  <text x="610" y="125" font-family="sans-serif" font-size="14" fill="#1a7a40" text-anchor="middle" font-weight="bold">A-3 도장구역</text>
  <text x="610" y="145" font-family="sans-serif" font-size="11" fill="#27ae60" text-anchor="middle">[ 카펫 ]</text>
  <rect x="525" y="165" width="170" height="60" fill="#a9dfbf" rx="3"/>
  <rect x="525" y="240" width="170" height="60" fill="#a9dfbf" rx="3"/>
  <rect x="525" y="315" width="170" height="60" fill="#a9dfbf" rx="3"/>
  <rect x="730" y="90" width="225" height="170" fill="#fdfefe" rx="4" stroke="#7f8c8d" stroke-width="1.5"/>
  <text x="842" y="125" font-family="sans-serif" font-size="13" fill="#555" text-anchor="middle" font-weight="bold">A-4 품질관리실</text>
  <text x="842" y="145" font-family="sans-serif" font-size="11" fill="#7f8c8d" text-anchor="middle">[ 우드 ]</text>
  <rect x="730" y="280" width="225" height="180" fill="#fef9e7" rx="4" stroke="#f1c40f" stroke-width="1.5"/>
  <text x="842" y="315" font-family="sans-serif" font-size="13" fill="#7d6608" text-anchor="middle" font-weight="bold">A-5 사무실</text>
  <text x="842" y="335" font-family="sans-serif" font-size="11" fill="#b7950b" text-anchor="middle">[ 소프트타일 ]</text>
  <rect x="40" y="505" width="930" height="60" fill="#eaecee" rx="3" stroke="#bdc3c7" stroke-width="1.5"/>
  <text x="505" y="540" font-family="sans-serif" font-size="13" fill="#7f8c8d" text-anchor="middle">메인 복도 — 타일</text>

  <rect x="40" y="580" width="930" height="370" fill="#f5eef8" rx="4" stroke="#8e44ad" stroke-width="2.5"/>
  <text x="505" y="615" font-family="sans-serif" font-size="20" fill="#6c3483" font-weight="bold" text-anchor="middle">B 창고 — 물류 구역</text>
  <rect x="55" y="630" width="270" height="300" fill="#e8daef" rx="4" stroke="#8e44ad" stroke-width="1.5"/>
  <text x="190" y="665" font-family="sans-serif" font-size="14" fill="#6c3483" text-anchor="middle" font-weight="bold">B-1 입고 구역</text>
  <text x="190" y="685" font-family="sans-serif" font-size="11" fill="#8e44ad" text-anchor="middle">[ 콘크리트 ]</text>
  <rect x="70" y="705" width="240" height="25" fill="#c39bd3" rx="2"/>
  <rect x="70" y="740" width="240" height="25" fill="#c39bd3" rx="2"/>
  <rect x="70" y="775" width="240" height="25" fill="#c39bd3" rx="2"/>
  <rect x="345" y="630" width="270" height="300" fill="#e8daef" rx="4" stroke="#8e44ad" stroke-width="1.5"/>
  <text x="480" y="665" font-family="sans-serif" font-size="14" fill="#6c3483" text-anchor="middle" font-weight="bold">B-2 보관 구역</text>
  <text x="480" y="685" font-family="sans-serif" font-size="11" fill="#8e44ad" text-anchor="middle">[ 소프트 PVC ]</text>
  <rect x="360" y="705" width="240" height="25" fill="#c39bd3" rx="2"/>
  <rect x="360" y="740" width="240" height="25" fill="#c39bd3" rx="2"/>
  <rect x="360" y="775" width="240" height="25" fill="#c39bd3" rx="2"/>
  <rect x="635" y="630" width="320" height="300" fill="#e8daef" rx="4" stroke="#8e44ad" stroke-width="1.5"/>
  <text x="795" y="665" font-family="sans-serif" font-size="14" fill="#6c3483" text-anchor="middle" font-weight="bold">B-3 출고 구역</text>
  <text x="795" y="685" font-family="sans-serif" font-size="11" fill="#8e44ad" text-anchor="middle">[ 파인 콘크리트 ]</text>
  <rect x="650" y="705" width="290" height="25" fill="#c39bd3" rx="2"/>
  <rect x="650" y="740" width="290" height="25" fill="#c39bd3" rx="2"/>
  <rect x="650" y="775" width="290" height="25" fill="#c39bd3" rx="2"/>
  <rect x="960" y="500" width="40" height="70" fill="#eafaf1" stroke="#2ecc71" stroke-width="3" rx="3"/>
  <text x="980" y="535" font-family="sans-serif" font-size="9" fill="#27ae60" text-anchor="middle" font-weight="bold">출입구</text>

</svg>